<svg width="16" height="16" viewBox="0 0 16 16" fill="none" xmlns="http://www.w3.org/2000/svg">
<path d="M7.83432 6.89254L7.7365 7.38288L7.83432 6.89254ZM8.63487 7.36995C8.4968 7.6091 8.57873 7.9149 8.81788 8.05297C9.05703 8.19104 9.36282 8.1091 9.50089 7.86995L8.63487 7.36995ZM1.86918 10.6188L1.56168 10.2245C1.43055 10.3268 1.35885 10.4876 1.37038 10.6535C1.38191 10.8194 1.47517 10.9687 1.61918 11.0518L1.86918 10.6188ZM8.79738 14.6188L8.54738 15.0518C8.6914 15.135 8.86733 15.1411 9.01676 15.0681C9.16619 14.9951 9.26957 14.8527 9.29258 14.688L8.79738 14.6188ZM4.98013 8.43048L9.13705 10.8305L9.63705 9.96445L5.48013 7.56445L4.98013 8.43048ZM9.85563 10.5719C10.018 10.1358 10.1587 9.43855 10.0602 8.72143C9.95953 7.98829 9.60127 7.20673 8.74378 6.71165L8.24378 7.57768C8.77192 7.8826 9.0001 8.35197 9.06953 8.8575C9.14116 9.37904 9.03567 9.90823 8.91848 10.223L9.85563 10.5719ZM8.74378 6.71165C8.47594 6.55701 8.20368 6.45637 7.93214 6.4022L7.7365 7.38288C7.89911 7.41532 8.06876 7.47663 8.24378 7.57768L8.74378 6.71165ZM7.93214 6.4022C7.21572 6.25928 6.55357 6.44761 6.03184 6.72276C5.51204 6.99689 5.09621 7.37471 4.84475 7.6789L5.61551 8.31603C5.793 8.10131 6.10859 7.81283 6.49832 7.60729C6.8861 7.40279 7.31158 7.29811 7.7365 7.38288L7.93214 6.4022ZM8.26733 7.14254L10.1008 3.96688L9.23477 3.46688L7.4013 6.64254L8.26733 7.14254ZM10.1008 3.96688C10.1229 3.92853 10.147 3.8827 10.1619 3.85493C10.1796 3.8218 10.194 3.79593 10.2083 3.77307C10.2385 3.72449 10.2528 3.71496 10.2492 3.71751C10.2454 3.72025 10.2373 3.725 10.2263 3.72832C10.2151 3.73169 10.2093 3.73104 10.2129 3.73122C10.2236 3.73174 10.2862 3.73891 10.4166 3.81421L10.9166 2.94818C10.7006 2.82348 10.4821 2.7432 10.2618 2.73242C10.0289 2.72101 9.82817 2.78918 9.66744 2.90415C9.51775 3.01121 9.42071 3.1459 9.35917 3.24482C9.32752 3.2957 9.30093 3.3444 9.28071 3.38209C9.2576 3.42515 9.24659 3.44642 9.23477 3.46688L10.1008 3.96688ZM10.4166 3.81421C10.5594 3.89666 10.6137 3.95251 10.6298 3.97327C10.6374 3.98304 10.6208 3.96182 10.6212 3.92409C10.6214 3.90175 10.6282 3.90679 10.6018 3.96087C10.5894 3.98617 10.5732 4.01558 10.5508 4.05391C10.5353 4.08043 10.4968 4.14499 10.4749 4.18288L11.341 4.68288C11.3757 4.62263 11.4494 4.50391 11.5002 4.40006C11.5553 4.28738 11.6194 4.12588 11.6211 3.93338C11.6253 3.48676 11.3127 3.17684 10.9166 2.94818L10.4166 3.81421ZM10.4749 4.18288L8.63487 7.36995L9.50089 7.86995L11.341 4.68288L10.4749 4.18288ZM4.92263 7.6032L1.56168 10.2245L2.17668 11.0131L5.53763 8.39173L4.92263 7.6032ZM9.29258 14.688L9.88224 10.4666L8.89186 10.3283L8.30219 14.5496L9.29258 14.688ZM1.61918 11.0518L3.35123 12.0518L3.85123 11.1858L2.11918 10.1858L1.61918 11.0518ZM3.35123 12.0518L5.08328 13.0518L5.58328 12.1858L3.85123 11.1858L3.35123 12.0518ZM5.08328 13.0518L6.81533 14.0518L7.31533 13.1858L5.58328 12.1858L5.08328 13.0518ZM6.81533 14.0518L8.54738 15.0518L9.04738 14.1858L7.31533 13.1858L6.81533 14.0518Z" fill="#4F4F4F"/>
<path d="M3.76786 11.3301L5.17855 10.2201" stroke="#4F4F4F" stroke-linecap="round"/>
<path d="M7.23205 13.3301L7.48804 11.5534" stroke="#4F4F4F" stroke-linecap="round"/>
<path d="M5.5 12.3301L6 11.4641" stroke="#4F4F4F" stroke-linecap="round"/>
</svg>
